<svg data-v-fde0c5aa="" xmlns="http://www.w3.org/2000/svg" viewBox="0 0 300 300" class="iconAbove"><!----><defs data-v-fde0c5aa=""><!----></defs><rect data-v-fde0c5aa="" fill="#F1DEDA" x="0" y="0" width="300px" height="300px" class="logo-background-square"></rect><defs data-v-fde0c5aa=""><!----></defs><g data-v-fde0c5aa="" id="c8a39d16-bcf6-4df5-adde-fb4d034e31aa" fill="#250A05" transform="matrix(3.1457954652135154,0,0,3.1457954652135154,18.23835453198027,169.4440399844883)"><path d="M5.25 4.09L5.25 4.09L5.25 4.09Q5.07 4.09 4.82 4.16L4.82 4.16L4.82 4.16Q4.57 4.24 4.32 4.45L4.32 4.45L4.32 4.45Q4.06 4.66 3.81 5.03L3.81 5.03L3.81 5.03Q3.57 5.41 3.37 6.01L3.37 6.01L3.37 6.01Q3.18 6.60 3.06 7.46L3.06 7.46L3.06 7.46Q2.94 8.31 2.94 9.47L2.94 9.47L2.94 9.47Q2.94 10.58 3.06 11.40L3.06 11.40L3.06 11.40Q3.18 12.21 3.38 12.78L3.38 12.78L3.38 12.78Q3.58 13.35 3.84 13.71L3.84 13.71L3.84 13.71Q4.10 14.08 4.39 14.28L4.39 14.28L4.39 14.28Q4.68 14.48 4.96 14.55L4.96 14.55L4.96 14.55Q5.25 14.63 5.50 14.63L5.50 14.63L5.50 14.63Q5.77 14.63 6.04 14.56L6.04 14.56L6.04 14.56Q6.32 14.49 6.58 14.36L6.58 14.36L6.58 14.36Q6.84 14.23 7.09 14.05L7.09 14.05L7.09 14.05Q7.33 13.86 7.53 13.62L7.53 13.62L7.84 13.93L7.84 13.93Q7.64 14.18 7.35 14.45L7.35 14.45L7.35 14.45Q7.06 14.71 6.68 14.93L6.68 14.93L6.68 14.93Q6.30 15.14 5.83 15.28L5.83 15.28L5.83 15.28Q5.36 15.42 4.79 15.42L4.79 15.42L4.79 15.42Q3.89 15.42 3.12 15.07L3.12 15.07L3.12 15.07Q2.35 14.73 1.78 14.01L1.78 14.01L1.78 14.01Q1.21 13.29 0.89 12.16L0.89 12.16L0.89 12.16Q0.56 11.03 0.56 9.46L0.56 9.46L0.56 9.46Q0.56 7.98 0.90 6.87L0.90 6.87L0.90 6.87Q1.24 5.76 1.83 5.01L1.83 5.01L1.83 5.01Q2.42 4.26 3.21 3.88L3.21 3.88L3.21 3.88Q4.01 3.50 4.90 3.50L4.90 3.50L4.90 3.50Q5.50 3.50 5.98 3.61L5.98 3.61L5.98 3.61Q6.47 3.73 6.83 3.94L6.83 3.94L6.83 3.94Q7.18 4.16 7.38 4.47L7.38 4.47L7.38 4.47Q7.57 4.79 7.57 5.20L7.57 5.20L7.57 5.20Q7.57 5.38 7.51 5.58L7.51 5.58L7.51 5.58Q7.45 5.78 7.32 5.95L7.32 5.95L7.32 5.95Q7.20 6.12 7.01 6.22L7.01 6.22L7.01 6.22Q6.83 6.33 6.58 6.33L6.58 6.33L6.58 6.33Q6.36 6.33 6.24 6.23L6.24 6.23L6.24 6.23Q6.13 6.14 6.07 5.98L6.07 5.98L6.07 5.98Q6.01 5.82 5.99 5.62L5.99 5.62L5.99 5.62Q5.97 5.42 5.97 5.21L5.97 5.21L5.97 5.21Q5.96 5.00 5.94 4.80L5.94 4.80L5.94 4.80Q5.91 4.59 5.84 4.44L5.84 4.44L5.84 4.44Q5.77 4.28 5.63 4.18L5.63 4.18L5.63 4.18Q5.50 4.09 5.25 4.09ZM10.66 7.76L10.66 13.10L10.66 13.10Q10.66 13.19 10.63 13.32L10.63 13.32L10.63 13.32Q10.60 13.45 10.49 13.56L10.49 13.56L10.49 13.56Q10.38 13.67 10.17 13.75L10.17 13.75L10.17 13.75Q9.95 13.83 9.59 13.83L9.59 13.83L9.59 13.83Q9.23 13.83 9.02 13.74L9.02 13.74L9.02 13.74Q8.82 13.66 8.72 13.54L8.72 13.54L8.72 13.54Q8.61 13.43 8.59 13.30L8.59 13.30L8.59 13.30Q8.57 13.18 8.57 13.10L8.57 13.10L8.57 7.83L8.57 7.83Q8.57 7.63 8.47 7.48L8.47 7.48L8.47 7.48Q8.38 7.33 8.16 7.33L8.16 7.33L8.16 7.33Q8.05 7.33 7.96 7.38L7.96 7.38L7.96 7.38Q7.88 7.42 7.79 7.49L7.79 7.49L7.64 7.32L7.64 7.32Q7.80 7.19 7.99 7.06L7.99 7.06L7.99 7.06Q8.19 6.94 8.42 6.84L8.42 6.84L8.42 6.84Q8.64 6.75 8.90 6.69L8.90 6.69L8.90 6.69Q9.16 6.62 9.45 6.62L9.45 6.62L9.45 6.62Q9.89 6.62 10.14 6.74L10.14 6.74L10.14 6.74Q10.38 6.86 10.50 7.04L10.50 7.04L10.50 7.04Q10.62 7.21 10.64 7.41L10.64 7.41L10.64 7.41Q10.66 7.61 10.66 7.76L10.66 7.76ZM8.35 5.07L8.35 5.07L8.35 5.07Q8.35 4.87 8.44 4.70L8.44 4.70L8.44 4.70Q8.52 4.53 8.68 4.40L8.68 4.40L8.68 4.40Q8.83 4.27 9.03 4.19L9.03 4.19L9.03 4.19Q9.24 4.12 9.47 4.12L9.47 4.12L9.47 4.12Q9.71 4.12 9.91 4.19L9.91 4.19L9.91 4.19Q10.11 4.27 10.26 4.40L10.26 4.40L10.26 4.40Q10.41 4.53 10.50 4.70L10.50 4.70L10.50 4.70Q10.58 4.87 10.58 5.07L10.58 5.07L10.58 5.07Q10.58 5.26 10.50 5.43L10.50 5.43L10.50 5.43Q10.41 5.61 10.26 5.73L10.26 5.73L10.26 5.73Q10.11 5.86 9.91 5.93L9.91 5.93L9.91 5.93Q9.71 6.01 9.47 6.01L9.47 6.01L9.47 6.01Q9.24 6.01 9.03 5.93L9.03 5.93L9.03 5.93Q8.83 5.86 8.68 5.73L8.68 5.73L8.68 5.73Q8.52 5.61 8.44 5.43L8.44 5.43L8.44 5.43Q8.35 5.26 8.35 5.07ZM14.57 8.07L14.57 8.07L14.57 8.07Q14.83 7.67 15.12 7.35L15.12 7.35L15.12 7.35Q15.24 7.21 15.39 7.08L15.39 7.08L15.39 7.08Q15.53 6.95 15.69 6.85L15.69 6.85L15.69 6.85Q15.84 6.75 16.00 6.69L16.00 6.69L16.00 6.69Q16.17 6.62 16.33 6.62L16.33 6.62L16.33 6.62Q16.68 6.62 16.88 6.83L16.88 6.83L16.88 6.83Q17.08 7.04 17.08 7.42L17.08 7.42L17.08 7.42Q17.08 7.65 17.04 7.86L17.04 7.86L17.04 7.86Q17.00 8.08 16.89 8.39L16.89 8.39L16.70 8.39L16.70 8.39Q16.66 8.18 16.51 8.04L16.51 8.04L16.51 8.04Q16.36 7.90 16.07 7.90L16.07 7.90L16.07 7.90Q15.86 7.90 15.65 7.97L15.65 7.97L15.65 7.97Q15.45 8.05 15.25 8.17L15.25 8.17L15.25 8.17Q15.06 8.29 14.89 8.42L14.89 8.42L14.89 8.42Q14.71 8.56 14.57 8.68L14.57 8.68L14.57 13.12L14.57 13.12Q14.57 13.21 14.54 13.33L14.54 13.33L14.54 13.33Q14.51 13.45 14.41 13.56L14.41 13.56L14.41 13.56Q14.30 13.67 14.09 13.75L14.09 13.75L14.09 13.75Q13.88 13.83 13.52 13.83L13.52 13.83L13.52 13.83Q13.16 13.83 12.95 13.74L12.95 13.74L12.95 13.74Q12.74 13.66 12.63 13.54L12.63 13.54L12.63 13.54Q12.52 13.43 12.50 13.30L12.50 13.30L12.50 13.30Q12.47 13.18 12.47 13.10L12.47 13.10L12.47 7.83L12.47 7.83Q12.47 7.63 12.38 7.48L12.38 7.48L12.38 7.48Q12.28 7.33 12.07 7.33L12.07 7.33L12.07 7.33Q11.95 7.33 11.87 7.38L11.87 7.38L11.87 7.38Q11.79 7.42 11.69 7.49L11.69 7.49L11.55 7.32L11.55 7.32Q11.70 7.19 11.90 7.06L11.90 7.06L11.90 7.06Q12.09 6.94 12.32 6.84L12.32 6.84L12.32 6.84Q12.54 6.75 12.80 6.69L12.80 6.69L12.80 6.69Q13.06 6.62 13.35 6.62L13.35 6.62L13.35 6.62Q13.64 6.62 13.85 6.70L13.85 6.70L13.85 6.70Q14.06 6.78 14.19 6.91L14.19 6.91L14.19 6.91Q14.33 7.03 14.40 7.19L14.40 7.19L14.40 7.19Q14.48 7.35 14.52 7.51L14.52 7.51L14.52 7.51Q14.55 7.67 14.56 7.82L14.56 7.82L14.56 7.82Q14.57 7.96 14.57 8.07ZM17.51 10.22L17.51 10.22L17.51 10.22Q17.51 9.32 17.77 8.65L17.77 8.65L17.77 8.65Q18.03 7.98 18.46 7.53L18.46 7.53L18.46 7.53Q18.89 7.08 19.47 6.85L19.47 6.85L19.47 6.85Q20.04 6.62 20.67 6.62L20.67 6.62L20.67 6.62Q21.30 6.62 21.88 6.83L21.88 6.83L21.88 6.83Q22.45 7.04 22.88 7.47L22.88 7.47L22.88 7.47Q23.32 7.90 23.58 8.56L23.58 8.56L23.58 8.56Q23.84 9.22 23.84 10.12L23.84 10.12L23.84 10.12Q23.84 11.02 23.58 11.71L23.58 11.71L23.58 11.71Q23.32 12.40 22.88 12.87L22.88 12.87L22.88 12.87Q22.45 13.34 21.88 13.59L21.88 13.59L21.88 13.59Q21.30 13.83 20.67 13.83L20.67 13.83L20.63 13.83L20.63 13.83Q21.01 13.94 21.47 14.13L21.47 14.13L21.47 14.13Q21.92 14.32 22.41 14.54L22.41 14.54L22.41 14.54Q22.90 14.76 23.40 14.99L23.40 14.99L23.40 14.99Q23.89 15.22 24.36 15.40L24.36 15.40L24.36 15.40Q24.82 15.59 25.23 15.70L25.23 15.70L25.23 15.70Q25.65 15.82 25.98 15.82L25.98 15.82L25.98 15.82Q26.20 15.82 26.35 15.78L26.35 15.78L26.35 15.78Q26.50 15.75 26.61 15.69L26.61 15.69L26.61 15.69Q26.71 15.63 26.77 15.54L26.77 15.54L26.77 15.54Q26.82 15.46 26.87 15.36L26.87 15.36L27.07 15.40L27.07 15.40Q27.04 15.79 26.91 16.11L26.91 16.11L26.91 16.11Q26.78 16.43 26.57 16.66L26.57 16.66L26.57 16.66Q26.35 16.88 26.05 17.01L26.05 17.01L26.05 17.01Q25.75 17.14 25.38 17.14L25.38 17.14L25.38 17.14Q24.93 17.14 24.41 16.96L24.41 16.96L24.41 16.96Q23.89 16.78 23.33 16.52L23.33 16.52L23.33 16.52Q22.78 16.26 22.21 15.95L22.21 15.95L22.21 15.95Q21.64 15.64 21.09 15.38L21.09 15.38L21.09 15.38Q20.55 15.11 20.05 14.94L20.05 14.94L20.05 14.94Q19.56 14.76 19.16 14.76L19.16 14.76L19.16 14.76Q18.76 14.76 18.59 15.11L18.59 15.11L18.38 15.04L18.38 15.04Q18.40 14.92 18.48 14.71L18.48 14.71L18.48 14.71Q18.56 14.50 18.73 14.29L18.73 14.29L18.73 14.29Q18.90 14.08 19.17 13.91L19.17 13.91L19.17 13.91Q19.44 13.75 19.83 13.72L19.83 13.72L19.83 13.72Q19.35 13.60 18.92 13.31L18.92 13.31L18.92 13.31Q18.50 13.03 18.18 12.59L18.18 12.59L18.18 12.59Q17.87 12.15 17.69 11.56L17.69 11.56L17.69 11.56Q17.51 10.96 17.51 10.22ZM21.71 10.15L21.71 10.15L21.71 10.15Q21.71 9.60 21.67 9.10L21.67 9.10L21.67 9.10Q21.64 8.59 21.53 8.19L21.53 8.19L21.53 8.19Q21.42 7.79 21.21 7.56L21.21 7.56L21.21 7.56Q21.01 7.32 20.67 7.32L20.67 7.32L20.67 7.32Q20.34 7.32 20.13 7.57L20.13 7.57L20.13 7.57Q19.93 7.82 19.82 8.23L19.82 8.23L19.82 8.23Q19.71 8.63 19.67 9.15L19.67 9.15L19.67 9.15Q19.64 9.67 19.64 10.22L19.64 10.22L19.64 10.22Q19.64 10.77 19.67 11.29L19.67 11.29L19.67 11.29Q19.71 11.81 19.82 12.22L19.82 12.22L19.82 12.22Q19.93 12.63 20.13 12.88L20.13 12.88L20.13 12.88Q20.34 13.13 20.67 13.13L20.67 13.13L20.67 13.13Q21.01 13.13 21.21 12.87L21.21 12.87L21.21 12.87Q21.42 12.61 21.53 12.19L21.53 12.19L21.53 12.19Q21.64 11.76 21.67 11.23L21.67 11.23L21.67 11.23Q21.71 10.70 21.71 10.15ZM31.09 7.62L31.09 12.53L31.09 12.53Q31.09 12.59 31.10 12.66L31.10 12.66L31.10 12.66Q31.10 12.74 31.13 12.80L31.13 12.80L31.13 12.80Q31.16 12.87 31.21 12.91L31.21 12.91L31.21 12.91Q31.27 12.95 31.37 12.95L31.37 12.95L31.37 12.95Q31.50 12.95 31.60 12.85L31.60 12.85L31.60 12.85Q31.71 12.76 31.79 12.67L31.79 12.67L31.96 12.81L31.96 12.81Q31.86 12.95 31.70 13.13L31.70 13.13L31.70 13.13Q31.55 13.30 31.33 13.46L31.33 13.46L31.33 13.46Q31.11 13.62 30.83 13.72L30.83 13.72L30.83 13.72Q30.55 13.83 30.19 13.83L30.19 13.83L30.19 13.83Q29.89 13.83 29.67 13.75L29.67 13.75L29.67 13.75Q29.45 13.67 29.30 13.54L29.30 13.54L29.30 13.54Q29.14 13.41 29.07 13.22L29.07 13.22L29.07 13.22Q28.99 13.04 28.99 12.84L28.99 12.84L28.99 12.53L28.99 12.53Q28.65 12.90 28.27 13.18L28.27 13.18L28.27 13.18Q28.11 13.30 27.92 13.42L27.92 13.42L27.92 13.42Q27.74 13.54 27.54 13.63L27.54 13.63L27.54 13.63Q27.34 13.72 27.13 13.77L27.13 13.77L27.13 13.77Q26.92 13.83 26.71 13.83L26.71 13.83L26.71 13.83Q26.30 13.83 26.01 13.68L26.01 13.68L26.01 13.68Q25.72 13.54 25.54 13.30L25.54 13.30L25.54 13.30Q25.36 13.06 25.28 12.76L25.28 12.76L25.28 12.76Q25.20 12.46 25.20 12.15L25.20 12.15L25.20 7.92L25.20 7.92Q25.20 7.86 25.19 7.79L25.19 7.79L25.19 7.79Q25.18 7.72 25.16 7.65L25.16 7.65L25.16 7.65Q25.13 7.59 25.07 7.55L25.07 7.55L25.07 7.55Q25.02 7.51 24.92 7.51L24.92 7.51L24.92 7.51Q24.79 7.51 24.69 7.60L24.69 7.60L24.69 7.60Q24.58 7.69 24.50 7.79L24.50 7.79L24.33 7.64L24.33 7.64Q24.43 7.50 24.59 7.32L24.59 7.32L24.59 7.32Q24.74 7.15 24.96 6.99L24.96 6.99L24.96 6.99Q25.18 6.84 25.46 6.73L25.46 6.73L25.46 6.73Q25.74 6.62 26.09 6.62L26.09 6.62L26.09 6.62Q26.39 6.62 26.62 6.70L26.62 6.70L26.62 6.70Q26.84 6.78 27.00 6.91L27.00 6.91L27.00 6.91Q27.15 7.05 27.22 7.23L27.22 7.23L27.22 7.23Q27.30 7.41 27.30 7.62L27.30 7.62L27.30 12.18L27.30 12.18Q27.30 12.28 27.33 12.38L27.33 12.38L27.33 12.38Q27.36 12.48 27.42 12.56L27.42 12.56L27.42 12.56Q27.47 12.64 27.56 12.69L27.56 12.69L27.56 12.69Q27.65 12.74 27.77 12.74L27.77 12.74L27.77 12.74Q27.97 12.74 28.17 12.64L28.17 12.64L28.17 12.64Q28.37 12.54 28.53 12.40L28.53 12.40L28.53 12.40Q28.70 12.26 28.82 12.12L28.82 12.12L28.82 12.12Q28.94 11.98 28.99 11.92L28.99 11.92L28.99 7.92L28.99 7.92Q28.99 7.86 28.98 7.79L28.98 7.79L28.98 7.79Q28.98 7.72 28.95 7.65L28.95 7.65L28.95 7.65Q28.92 7.59 28.87 7.55L28.87 7.55L28.87 7.55Q28.81 7.51 28.71 7.51L28.71 7.51L28.71 7.51Q28.59 7.51 28.48 7.60L28.48 7.60L28.48 7.60Q28.38 7.69 28.29 7.79L28.29 7.79L28.12 7.64L28.12 7.64Q28.23 7.50 28.38 7.32L28.38 7.32L28.38 7.32Q28.53 7.15 28.75 6.99L28.75 6.99L28.75 6.99Q28.97 6.84 29.25 6.73L29.25 6.73L29.25 6.73Q29.54 6.62 29.89 6.62L29.89 6.62L29.89 6.62Q30.19 6.62 30.41 6.70L30.41 6.70L30.41 6.70Q30.64 6.78 30.79 6.91L30.79 6.91L30.79 6.91Q30.94 7.05 31.01 7.23L31.01 7.23L31.01 7.23Q31.09 7.41 31.09 7.62L31.09 7.62ZM37.35 8.99L34.65 10.58L34.65 10.58Q34.65 10.80 34.72 11.06L34.72 11.06L34.72 11.06Q34.78 11.31 34.90 11.57L34.90 11.57L34.90 11.57Q35.03 11.83 35.21 12.07L35.21 12.07L35.21 12.07Q35.39 12.30 35.63 12.49L35.63 12.49L35.63 12.49Q35.86 12.67 36.15 12.78L36.15 12.78L36.15 12.78Q36.44 12.89 36.78 12.89L36.78 12.89L36.78 12.89Q37.02 12.89 37.22 12.84L37.22 12.84L37.22 12.84Q37.43 12.78 37.60 12.69L37.60 12.69L37.60 12.69Q37.78 12.59 37.95 12.47L37.95 12.47L37.95 12.47Q38.11 12.34 38.27 12.20L38.27 12.20L38.45 12.36L38.45 12.36Q38.29 12.57 38.04 12.82L38.04 12.82L38.04 12.82Q37.80 13.08 37.45 13.30L37.45 13.30L37.45 13.30Q37.10 13.52 36.63 13.67L36.63 13.67L36.63 13.67Q36.17 13.82 35.57 13.82L35.57 13.82L35.57 13.82Q34.98 13.82 34.42 13.60L34.42 13.60L34.42 13.60Q33.85 13.38 33.41 12.95L33.41 12.95L33.41 12.95Q32.98 12.52 32.71 11.88L32.71 11.88L32.71 11.88Q32.45 11.24 32.45 10.38L32.45 10.38L32.45 10.38Q32.45 9.75 32.61 9.24L32.61 9.24L32.61 9.24Q32.76 8.72 33.03 8.30L33.03 8.30L33.03 8.30Q33.30 7.88 33.66 7.57L33.66 7.57L33.66 7.57Q34.02 7.25 34.42 7.04L34.42 7.04L34.42 7.04Q34.82 6.84 35.23 6.73L35.23 6.73L35.23 6.73Q35.64 6.62 36.03 6.62L36.03 6.62L36.03 6.62Q36.53 6.62 36.91 6.73L36.91 6.73L36.91 6.73Q37.28 6.84 37.53 7.03L37.53 7.03L37.53 7.03Q37.78 7.21 37.91 7.45L37.91 7.45L37.91 7.45Q38.03 7.70 38.03 7.96L38.03 7.96L38.03 7.96Q38.03 8.29 37.84 8.54L37.84 8.54L37.84 8.54Q37.66 8.80 37.35 8.99L37.35 8.99ZM34.58 10.02L36.03 9.19L36.03 9.19Q36.11 9.14 36.17 9.09L36.17 9.09L36.17 9.09Q36.23 9.04 36.26 8.97L36.26 8.97L36.26 8.97Q36.30 8.89 36.32 8.79L36.32 8.79L36.32 8.79Q36.33 8.68 36.33 8.52L36.33 8.52L36.33 8.52Q36.33 8.35 36.30 8.15L36.30 8.15L36.30 8.15Q36.26 7.94 36.17 7.75L36.17 7.75L36.17 7.75Q36.08 7.57 35.94 7.44L35.94 7.44L35.94 7.44Q35.81 7.32 35.62 7.32L35.62 7.32L35.62 7.32Q35.37 7.32 35.19 7.47L35.19 7.47L35.19 7.47Q35.02 7.62 34.91 7.85L34.91 7.85L34.91 7.85Q34.79 8.08 34.73 8.38L34.73 8.38L34.73 8.38Q34.67 8.67 34.63 8.98L34.63 8.98L34.63 8.98Q34.60 9.28 34.59 9.55L34.59 9.55L34.59 9.55Q34.58 9.83 34.58 10.02L34.58 10.02ZM50.08 8.42L50.08 9.02L47.38 9.02L47.38 12.82L47.38 12.82Q47.38 13.35 47.10 13.59L47.10 13.59L47.10 13.59Q46.83 13.83 46.26 13.83L46.26 13.83L46.26 13.83Q45.68 13.83 45.41 13.59L45.41 13.59L45.41 13.59Q45.14 13.35 45.14 12.82L45.14 12.82L45.14 9.02L44.07 9.02L44.07 8.42L45.14 8.42L45.14 4.12L45.14 4.12Q44.92 4.14 44.64 4.19L44.64 4.19L44.64 4.19Q44.35 4.25 44.05 4.36L44.05 4.36L44.05 4.36Q43.76 4.46 43.47 4.61L43.47 4.61L43.47 4.61Q43.18 4.75 42.96 4.94L42.96 4.94L42.96 4.94Q42.73 5.13 42.59 5.37L42.59 5.37L42.59 5.37Q42.45 5.61 42.45 5.88L42.45 5.88L42.45 5.88Q42.45 6.10 42.51 6.23L42.51 6.23L42.51 6.23Q42.57 6.36 42.64 6.42L42.64 6.42L42.64 6.42Q42.72 6.49 42.80 6.50L42.80 6.50L42.80 6.50Q42.88 6.52 42.91 6.52L42.91 6.52L42.91 6.52Q43.08 6.52 43.19 6.46L43.19 6.46L43.19 6.46Q43.30 6.41 43.39 6.34L43.39 6.34L43.39 6.34Q43.48 6.28 43.56 6.22L43.56 6.22L43.56 6.22Q43.63 6.16 43.74 6.16L43.74 6.16L43.74 6.16Q43.82 6.16 43.91 6.20L43.91 6.20L43.91 6.20Q44.00 6.23 44.08 6.32L44.08 6.32L44.08 6.32Q44.16 6.40 44.21 6.53L44.21 6.53L44.21 6.53Q44.27 6.67 44.27 6.86L44.27 6.86L44.27 6.86Q44.27 7.13 44.16 7.33L44.16 7.33L44.16 7.33Q44.06 7.53 43.89 7.66L43.89 7.66L43.89 7.66Q43.72 7.79 43.51 7.86L43.51 7.86L43.51 7.86Q43.29 7.92 43.08 7.92L43.08 7.92L43.08 7.92Q42.75 7.92 42.49 7.81L42.49 7.81L42.49 7.81Q42.23 7.70 42.04 7.50L42.04 7.50L42.04 7.50Q41.86 7.30 41.76 7.04L41.76 7.04L41.76 7.04Q41.67 6.77 41.67 6.47L41.67 6.47L41.67 6.47Q41.67 5.67 42.11 5.11L42.11 5.11L42.11 5.11Q42.55 4.55 43.31 4.19L43.31 4.19L43.31 4.19Q44.08 3.83 45.10 3.66L45.10 3.66L45.10 3.66Q46.12 3.50 47.28 3.50L47.28 3.50L47.28 3.50Q47.75 3.50 48.26 3.51L48.26 3.51L48.26 3.51Q48.77 3.52 49.23 3.54L49.23 3.54L49.23 3.54Q49.68 3.56 50.03 3.59L50.03 3.59L50.03 3.59Q50.38 3.62 50.52 3.65L50.52 3.65L50.52 3.65Q50.66 3.68 50.74 3.73L50.74 3.73L50.74 3.73Q50.83 3.77 50.87 3.82L50.87 3.82L50.87 3.82Q50.91 3.88 50.92 3.95L50.92 3.95L50.92 3.95Q50.93 4.02 50.93 4.12L50.93 4.12L50.93 4.12Q50.93 4.20 50.91 4.30L50.91 4.30L50.91 4.30Q50.89 4.40 50.85 4.48L50.85 4.48L50.85 4.48Q50.81 4.57 50.75 4.63L50.75 4.63L50.75 4.63Q50.69 4.69 50.60 4.69L50.60 4.69L50.60 4.69Q50.54 4.69 50.48 4.64L50.48 4.64L50.48 4.64Q50.42 4.59 50.30 4.52L50.30 4.52L50.30 4.52Q50.18 4.44 49.97 4.36L49.97 4.36L49.97 4.36Q49.77 4.28 49.43 4.20L49.43 4.20L49.43 4.20Q49.10 4.13 48.59 4.08L48.59 4.08L48.59 4.08Q48.09 4.03 47.38 4.03L47.38 4.03L47.38 8.42L50.08 8.42ZM53.56 7.76L53.56 13.10L53.56 13.10Q53.56 13.19 53.53 13.32L53.53 13.32L53.53 13.32Q53.50 13.45 53.39 13.56L53.39 13.56L53.39 13.56Q53.27 13.67 53.06 13.75L53.06 13.75L53.06 13.75Q52.85 13.83 52.49 13.83L52.49 13.83L52.49 13.83Q52.12 13.83 51.92 13.74L51.92 13.74L51.92 13.74Q51.71 13.66 51.61 13.54L51.61 13.54L51.61 13.54Q51.51 13.43 51.48 13.30L51.48 13.30L51.48 13.30Q51.46 13.18 51.46 13.10L51.46 13.10L51.46 7.83L51.46 7.83Q51.46 7.63 51.37 7.48L51.37 7.48L51.37 7.48Q51.28 7.33 51.06 7.33L51.06 7.33L51.06 7.33Q50.94 7.33 50.86 7.38L50.86 7.38L50.86 7.38Q50.78 7.42 50.68 7.49L50.68 7.49L50.54 7.32L50.54 7.32Q50.70 7.19 50.89 7.06L50.89 7.06L50.89 7.06Q51.08 6.94 51.31 6.84L51.31 6.84L51.31 6.84Q51.54 6.75 51.80 6.69L51.80 6.69L51.80 6.69Q52.06 6.62 52.34 6.62L52.34 6.62L52.34 6.62Q52.79 6.62 53.03 6.74L53.03 6.74L53.03 6.74Q53.28 6.86 53.40 7.04L53.40 7.04L53.40 7.04Q53.51 7.21 53.54 7.41L53.54 7.41L53.54 7.41Q53.56 7.61 53.56 7.76L53.56 7.76ZM51.25 5.07L51.25 5.07L51.25 5.07Q51.25 4.87 51.33 4.70L51.33 4.70L51.33 4.70Q51.42 4.53 51.57 4.40L51.57 4.40L51.57 4.40Q51.73 4.27 51.93 4.19L51.93 4.19L51.93 4.19Q52.13 4.12 52.37 4.12L52.37 4.12L52.37 4.12Q52.60 4.12 52.80 4.19L52.80 4.19L52.80 4.19Q53.01 4.27 53.16 4.40L53.16 4.40L53.16 4.40Q53.31 4.53 53.39 4.70L53.39 4.70L53.39 4.70Q53.48 4.87 53.48 5.07L53.48 5.07L53.48 5.07Q53.48 5.26 53.39 5.43L53.39 5.43L53.39 5.43Q53.31 5.61 53.16 5.73L53.16 5.73L53.16 5.73Q53.01 5.86 52.80 5.93L52.80 5.93L52.80 5.93Q52.60 6.01 52.37 6.01L52.37 6.01L52.37 6.01Q52.13 6.01 51.93 5.93L51.93 5.93L51.93 5.93Q51.73 5.86 51.57 5.73L51.57 5.73L51.57 5.73Q51.42 5.61 51.33 5.43L51.33 5.43L51.33 5.43Q51.25 5.26 51.25 5.07ZM58.56 7.21L57.50 7.21L57.50 12.26L57.50 12.26Q57.50 12.63 57.63 12.77L57.63 12.77L57.63 12.77Q57.77 12.91 58.01 12.91L58.01 12.91L58.01 12.91Q58.19 12.91 58.34 12.80L58.34 12.80L58.34 12.80Q58.48 12.70 58.58 12.57L58.58 12.57L58.58 12.57Q58.71 12.43 58.80 12.24L58.80 12.24L59.01 12.33L59.01 12.33Q58.91 12.55 58.77 12.81L58.77 12.81L58.77 12.81Q58.63 13.07 58.39 13.29L58.39 13.29L58.39 13.29Q58.16 13.51 57.81 13.67L57.81 13.67L57.81 13.67Q57.46 13.82 56.92 13.82L56.92 13.82L56.92 13.82Q56.62 13.82 56.35 13.73L56.35 13.73L56.35 13.73Q56.07 13.64 55.85 13.45L55.85 13.45L55.85 13.45Q55.64 13.25 55.51 12.97L55.51 12.97L55.51 12.97Q55.38 12.68 55.38 12.28L55.38 12.28L55.38 7.21L54.61 7.21L54.61 6.72L54.61 6.72Q54.80 6.72 55.15 6.62L55.15 6.62L55.15 6.62Q55.49 6.52 55.85 6.29L55.85 6.29L55.85 6.29Q56.21 6.06 56.51 5.67L56.51 5.67L56.51 5.67Q56.82 5.28 56.95 4.70L56.95 4.70L57.50 4.70L57.50 6.72L58.61 6.72L58.61 6.72Q59.16 6.72 59.16 6.54L59.16 6.54L59.16 6.54Q59.16 6.47 59.09 6.44L59.09 6.44L59.09 6.44Q59.02 6.42 58.94 6.38L58.94 6.38L58.94 6.38Q58.85 6.34 58.78 6.28L58.78 6.28L58.78 6.28Q58.71 6.21 58.71 6.05L58.71 6.05L58.71 6.05Q58.71 5.86 58.83 5.75L58.83 5.75L58.83 5.75Q58.95 5.64 59.14 5.64L59.14 5.64L59.14 5.64Q59.27 5.64 59.36 5.69L59.36 5.69L59.36 5.69Q59.45 5.74 59.51 5.83L59.51 5.83L59.51 5.83Q59.58 5.91 59.61 6.02L59.61 6.02L59.61 6.02Q59.64 6.13 59.64 6.24L59.64 6.24L59.64 6.24Q59.64 6.69 59.38 6.95L59.38 6.95L59.38 6.95Q59.12 7.21 58.56 7.21L58.56 7.21ZM64.02 10.32L64.02 10.32L64.02 10.32Q64.02 9.45 63.94 8.94L63.94 8.94L63.94 8.94Q63.86 8.42 63.73 8.15L63.73 8.15L63.73 8.15Q63.60 7.88 63.44 7.80L63.44 7.80L63.44 7.80Q63.29 7.71 63.12 7.71L63.12 7.71L63.12 7.71Q62.92 7.71 62.77 7.82L62.77 7.82L62.77 7.82Q62.62 7.92 62.50 8.06L62.50 8.06L62.50 8.06Q62.39 8.20 62.31 8.33L62.31 8.33L62.31 8.33Q62.23 8.47 62.18 8.54L62.18 8.54L62.18 13.10L62.18 13.10Q62.18 13.19 62.15 13.32L62.15 13.32L62.15 13.32Q62.13 13.45 62.02 13.56L62.02 13.56L62.02 13.56Q61.91 13.67 61.70 13.75L61.70 13.75L61.70 13.75Q61.50 13.83 61.13 13.83L61.13 13.83L61.13 13.83Q60.77 13.83 60.56 13.74L60.56 13.74L60.56 13.74Q60.35 13.66 60.25 13.54L60.25 13.54L60.25 13.54Q60.14 13.43 60.11 13.30L60.11 13.30L60.11 13.30Q60.08 13.18 60.08 13.10L60.08 13.10L60.08 7.83L60.08 7.83Q60.08 7.63 59.99 7.48L59.99 7.48L59.99 7.48Q59.90 7.33 59.68 7.33L59.68 7.33L59.68 7.33Q59.56 7.33 59.48 7.38L59.48 7.38L59.48 7.38Q59.40 7.42 59.30 7.49L59.30 7.49L59.16 7.32L59.16 7.32Q59.32 7.19 59.51 7.06L59.51 7.06L59.51 7.06Q59.71 6.94 59.93 6.84L59.93 6.84L59.93 6.84Q60.16 6.75 60.42 6.69L60.42 6.69L60.42 6.69Q60.68 6.62 60.96 6.62L60.96 6.62L60.96 6.62Q61.41 6.62 61.65 6.77L61.65 6.77L61.65 6.77Q61.90 6.92 62.02 7.12L62.02 7.12L62.02 7.12Q62.13 7.33 62.16 7.55L62.16 7.55L62.16 7.55Q62.18 7.77 62.18 7.92L62.18 7.92L62.18 7.92Q62.43 7.56 62.75 7.27L62.75 7.27L62.75 7.27Q62.88 7.15 63.04 7.03L63.04 7.03L63.04 7.03Q63.21 6.92 63.39 6.83L63.39 6.83L63.39 6.83Q63.57 6.73 63.77 6.68L63.77 6.68L63.77 6.68Q63.97 6.62 64.18 6.62L64.18 6.62L64.18 6.62Q64.65 6.62 65.01 6.80L65.01 6.80L65.01 6.80Q65.37 6.98 65.61 7.40L65.61 7.40L65.61 7.40Q65.86 7.81 65.99 8.50L65.99 8.50L65.99 8.50Q66.12 9.19 66.12 10.21L66.12 10.21L66.12 10.21Q66.12 11.20 65.94 11.93L65.94 11.93L65.94 11.93Q65.76 12.66 65.47 13.17L65.47 13.17L65.47 13.17Q65.19 13.69 64.83 14.01L64.83 14.01L64.83 14.01Q64.46 14.33 64.09 14.52L64.09 14.52L64.09 14.52Q63.72 14.70 63.39 14.78L63.39 14.78L63.39 14.78Q63.05 14.85 62.80 14.85L62.80 14.85L62.73 14.57L62.73 14.57Q62.93 14.53 63.11 14.42L63.11 14.42L63.11 14.42Q63.28 14.32 63.42 14.12L63.42 14.12L63.42 14.12Q63.57 13.92 63.68 13.62L63.68 13.62L63.68 13.62Q63.79 13.32 63.86 12.86L63.86 12.86L63.86 12.86Q63.94 12.40 63.98 11.77L63.98 11.77L63.98 11.77Q64.02 11.15 64.02 10.32ZM72.00 8.99L69.30 10.58L69.30 10.58Q69.30 10.80 69.36 11.06L69.36 11.06L69.36 11.06Q69.43 11.31 69.55 11.57L69.55 11.57L69.55 11.57Q69.67 11.83 69.85 12.07L69.85 12.07L69.85 12.07Q70.03 12.30 70.27 12.49L70.27 12.49L70.27 12.49Q70.51 12.67 70.79 12.78L70.79 12.78L70.79 12.78Q71.08 12.89 71.42 12.89L71.42 12.89L71.42 12.89Q71.66 12.89 71.87 12.84L71.87 12.84L71.87 12.84Q72.07 12.78 72.25 12.69L72.25 12.69L72.25 12.69Q72.43 12.59 72.59 12.47L72.59 12.47L72.59 12.47Q72.75 12.34 72.92 12.20L72.92 12.20L73.09 12.36L73.09 12.36Q72.93 12.57 72.69 12.82L72.69 12.82L72.69 12.82Q72.44 13.08 72.09 13.30L72.09 13.30L72.09 13.30Q71.74 13.52 71.28 13.67L71.28 13.67L71.28 13.67Q70.81 13.82 70.22 13.82L70.22 13.82L70.22 13.82Q69.62 13.82 69.06 13.60L69.06 13.60L69.06 13.60Q68.50 13.38 68.06 12.95L68.06 12.95L68.06 12.95Q67.62 12.52 67.36 11.88L67.36 11.88L67.36 11.88Q67.09 11.24 67.09 10.38L67.09 10.38L67.09 10.38Q67.09 9.75 67.25 9.24L67.25 9.24L67.25 9.24Q67.41 8.72 67.68 8.30L67.68 8.30L67.68 8.30Q67.95 7.88 68.31 7.57L68.31 7.57L68.31 7.57Q68.67 7.25 69.06 7.04L69.06 7.04L69.06 7.04Q69.46 6.84 69.87 6.73L69.87 6.73L69.87 6.73Q70.29 6.62 70.67 6.62L70.67 6.62L70.67 6.62Q71.18 6.62 71.55 6.73L71.55 6.73L71.55 6.73Q71.93 6.84 72.18 7.03L72.18 7.03L72.18 7.03Q72.43 7.21 72.55 7.45L72.55 7.45L72.55 7.45Q72.67 7.70 72.67 7.96L72.67 7.96L72.67 7.96Q72.67 8.29 72.49 8.54L72.49 8.54L72.49 8.54Q72.30 8.80 72.00 8.99L72.00 8.99ZM69.23 10.02L70.67 9.19L70.67 9.19Q70.76 9.14 70.82 9.09L70.82 9.09L70.82 9.09Q70.88 9.04 70.91 8.97L70.91 8.97L70.91 8.97Q70.94 8.89 70.96 8.79L70.96 8.79L70.96 8.79Q70.98 8.68 70.98 8.52L70.98 8.52L70.98 8.52Q70.98 8.35 70.94 8.15L70.94 8.15L70.94 8.15Q70.90 7.94 70.81 7.75L70.81 7.75L70.81 7.75Q70.72 7.57 70.59 7.44L70.59 7.44L70.59 7.44Q70.45 7.32 70.26 7.32L70.26 7.32L70.26 7.32Q70.01 7.32 69.84 7.47L69.84 7.47L69.84 7.47Q69.67 7.62 69.55 7.85L69.55 7.85L69.55 7.85Q69.44 8.08 69.37 8.38L69.37 8.38L69.37 8.38Q69.31 8.67 69.28 8.98L69.28 8.98L69.28 8.98Q69.24 9.28 69.23 9.55L69.23 9.55L69.23 9.55Q69.23 9.83 69.23 10.02L69.23 10.02ZM76.21 7.17L76.21 7.17L76.21 7.17Q76.05 7.17 75.91 7.21L75.91 7.21L75.91 7.21Q75.77 7.25 75.66 7.35L75.66 7.35L75.66 7.35Q75.55 7.44 75.49 7.58L75.49 7.58L75.49 7.58Q75.43 7.72 75.43 7.91L75.43 7.91L75.43 7.91Q75.43 8.18 75.62 8.44L75.62 8.44L75.62 8.44Q75.82 8.70 76.11 8.99L76.11 8.99L76.11 8.99Q76.40 9.27 76.74 9.57L76.74 9.57L76.74 9.57Q77.08 9.88 77.37 10.22L77.37 10.22L77.37 10.22Q77.66 10.55 77.85 10.94L77.85 10.94L77.85 10.94Q78.05 11.32 78.05 11.76L78.05 11.76L78.05 11.76Q78.05 12.25 77.88 12.63L77.88 12.63L77.88 12.63Q77.71 13.02 77.40 13.28L77.40 13.28L77.40 13.28Q77.09 13.55 76.65 13.69L76.65 13.69L76.65 13.69Q76.21 13.83 75.67 13.83L75.67 13.83L75.67 13.83Q75.20 13.83 74.81 13.70L74.81 13.70L74.81 13.70Q74.43 13.56 74.13 13.37L74.13 13.37L74.13 13.37Q73.83 13.17 73.62 12.95L73.62 12.95L73.62 12.95Q73.41 12.74 73.29 12.56L73.29 12.56L73.53 12.39L73.53 12.39Q73.62 12.49 73.76 12.61L73.76 12.61L73.76 12.61Q73.90 12.73 74.06 12.83L74.06 12.83L74.06 12.83Q74.23 12.93 74.42 13.00L74.42 13.00L74.42 13.00Q74.61 13.06 74.81 13.06L74.81 13.06L74.81 13.06Q75.30 13.06 75.62 12.83L75.62 12.83L75.62 12.83Q75.93 12.59 75.93 12.13L75.93 12.13L75.93 12.13Q75.93 11.87 75.76 11.59L75.76 11.59L75.76 11.59Q75.59 11.31 75.33 11.02L75.33 11.02L75.33 11.02Q75.07 10.73 74.77 10.41L74.77 10.41L74.77 10.41Q74.47 10.10 74.21 9.76L74.21 9.76L74.21 9.76Q73.95 9.43 73.78 9.07L73.78 9.07L73.78 9.07Q73.61 8.72 73.61 8.33L73.61 8.33L73.61 8.33Q73.61 7.90 73.78 7.58L73.78 7.58L73.78 7.58Q73.96 7.26 74.25 7.05L74.25 7.05L74.25 7.05Q74.54 6.84 74.91 6.73L74.91 6.73L74.91 6.73Q75.28 6.62 75.68 6.62L75.68 6.62L75.68 6.62Q76.14 6.62 76.51 6.71L76.51 6.71L76.51 6.71Q76.89 6.79 77.16 6.96L77.16 6.96L77.16 6.96Q77.43 7.12 77.58 7.38L77.58 7.38L77.58 7.38Q77.72 7.63 77.72 7.96L77.72 7.96L77.72 7.96Q77.72 8.22 77.55 8.42L77.55 8.42L77.55 8.42Q77.38 8.61 77.08 8.61L77.08 8.61L77.08 8.61Q76.78 8.61 76.63 8.48L76.63 8.48L76.63 8.48Q76.47 8.35 76.47 8.13L76.47 8.13L76.47 8.13Q76.47 7.99 76.55 7.91L76.55 7.91L76.55 7.91Q76.62 7.83 76.71 7.78L76.71 7.78L76.71 7.78Q76.79 7.72 76.87 7.69L76.87 7.69L76.87 7.69Q76.94 7.65 76.94 7.59L76.94 7.59L76.94 7.59Q76.94 7.40 76.73 7.28L76.73 7.28L76.73 7.28Q76.53 7.17 76.21 7.17ZM81.38 7.17L81.38 7.17L81.38 7.17Q81.22 7.17 81.08 7.21L81.08 7.21L81.08 7.21Q80.94 7.25 80.83 7.35L80.83 7.35L80.83 7.35Q80.72 7.44 80.66 7.58L80.66 7.58L80.66 7.58Q80.60 7.72 80.60 7.91L80.60 7.91L80.60 7.91Q80.60 8.18 80.79 8.44L80.79 8.44L80.79 8.44Q80.99 8.70 81.28 8.99L81.28 8.99L81.28 8.99Q81.57 9.27 81.90 9.57L81.90 9.57L81.90 9.57Q82.24 9.88 82.53 10.22L82.53 10.22L82.53 10.22Q82.82 10.55 83.02 10.94L83.02 10.94L83.02 10.94Q83.21 11.32 83.21 11.76L83.21 11.76L83.21 11.76Q83.21 12.25 83.05 12.63L83.05 12.63L83.05 12.63Q82.88 13.02 82.57 13.28L82.57 13.28L82.57 13.28Q82.26 13.55 81.82 13.69L81.82 13.69L81.82 13.69Q81.38 13.83 80.83 13.83L80.83 13.83L80.83 13.83Q80.36 13.83 79.98 13.70L79.98 13.70L79.98 13.70Q79.60 13.56 79.30 13.37L79.30 13.37L79.30 13.37Q79.00 13.17 78.79 12.95L78.79 12.95L78.79 12.95Q78.58 12.74 78.46 12.56L78.46 12.56L78.70 12.39L78.70 12.39Q78.79 12.49 78.93 12.61L78.93 12.61L78.93 12.61Q79.06 12.73 79.23 12.83L79.23 12.83L79.23 12.83Q79.40 12.93 79.59 13.00L79.59 13.00L79.59 13.00Q79.78 13.06 79.98 13.06L79.98 13.06L79.98 13.06Q80.47 13.06 80.79 12.83L80.79 12.83L80.79 12.83Q81.10 12.59 81.10 12.13L81.10 12.13L81.10 12.13Q81.10 11.87 80.93 11.59L80.93 11.59L80.93 11.59Q80.76 11.31 80.50 11.02L80.50 11.02L80.50 11.02Q80.24 10.73 79.94 10.41L79.94 10.41L79.94 10.41Q79.64 10.10 79.38 9.76L79.38 9.76L79.38 9.76Q79.12 9.43 78.95 9.07L78.95 9.07L78.95 9.07Q78.78 8.72 78.78 8.33L78.78 8.33L78.78 8.33Q78.78 7.90 78.95 7.58L78.95 7.58L78.95 7.58Q79.13 7.26 79.42 7.05L79.42 7.05L79.42 7.05Q79.71 6.84 80.08 6.73L80.08 6.73L80.08 6.73Q80.45 6.62 80.85 6.62L80.85 6.62L80.85 6.62Q81.31 6.62 81.68 6.71L81.68 6.71L81.68 6.71Q82.06 6.79 82.33 6.96L82.33 6.96L82.33 6.96Q82.60 7.12 82.75 7.38L82.75 7.38L82.75 7.38Q82.89 7.63 82.89 7.96L82.89 7.96L82.89 7.96Q82.89 8.22 82.72 8.42L82.72 8.42L82.72 8.42Q82.55 8.61 82.24 8.61L82.24 8.61L82.24 8.61Q81.95 8.61 81.80 8.48L81.80 8.48L81.80 8.48Q81.64 8.35 81.64 8.13L81.64 8.13L81.64 8.13Q81.64 7.99 81.71 7.91L81.71 7.91L81.71 7.91Q81.79 7.83 81.87 7.78L81.87 7.78L81.87 7.78Q81.96 7.72 82.03 7.69L82.03 7.69L82.03 7.69Q82.11 7.65 82.11 7.59L82.11 7.59L82.11 7.59Q82.11 7.40 81.90 7.28L81.90 7.28L81.90 7.28Q81.70 7.17 81.38 7.17Z"></path></g><defs data-v-fde0c5aa=""><linearGradient data-v-fde0c5aa="" gradientTransform="rotate(25)" id="04288e47-9e70-4bea-b626-9ad0a616170f" x1="0%" y1="0%" x2="100%" y2="0%"><stop data-v-fde0c5aa="" offset="0%" stop-color="#30223A" stop-opacity="1"></stop><stop data-v-fde0c5aa="" offset="100%" stop-color="#F13800" stop-opacity="1"></stop></linearGradient></defs><g data-v-fde0c5aa="" id="758c4f51-47b5-47be-8909-b3ae96d2496a" stroke="none" fill="url(#04288e47-9e70-4bea-b626-9ad0a616170f)" transform="matrix(0.001461930211735875,0,0,0.001461930211735875,106.14307159928609,75.68993432332701)"><path d="M15209 18957c124-51 256-95 395-129 137-34 285-59 444-75l20-2c620-53 1321 234 1876 668 94 73 184 152 269 233 6-61 13-121 19-180 35-325 67-618 58-751-117-216-359-425-696-591-347-171-785-288-1283-313-677 139-946 657-1101 1139zm8599 8852c-92-88-96-234-8-326s234-96 326-8c449 426 870 825 1308 1165 432 335 885 617 1406 818 119 46 178 179 132 298s-179 178-298 132c-568-219-1057-523-1521-883-458-356-887-762-1344-1196zm-2448 4327c-118-48-175-183-127-301s183-175 301-127l3706 1505c118 48 175 183 127 301s-183 175-301 127l-3706-1505zm9942 21465c-52 325-106 645-190 912-126 398-308 698-604 801 411 941 1033 1673 1595 2334 65 76 129 152 181 213 117 58 247 102 356 112-1061-1072-990-1977-907-3027 8-98 16-197 20-257 2-26 6-52 14-78 223-756-32-850-287-943-59-22-119-44-178-68zm-1056 975c67-42 118-148 161-286 77-244 126-552 176-861 37-232 74-465 121-675 10-844 113-1740 216-2641 181-1583 364-3185 37-4397l-1178-2128c-98-178-33-402 144-500 178-98 402-33 500 144l307 554c49-428 106-840 163-1252 198-1421 396-2842 214-4882-5-22-12-57-21-104-846 44-1777-106-2684-252-343-55-682-110-1009-152-170 2225 420 3966 1009 5708 322 951 644 1903 851 2936h-1c7 34 9 69 6 105-148 1642 139 3263 422 4857 139 785 277 1565 365 2356h-1c1 12 2 24 2 36 7 525 79 1000 199 1433zm12198-34776c109 46 205 110 283 193 136 145 212 333 208 566 195-109 394-218 593-327 999-546 1999-1093 2463-1662 134-225 182-391 170-509-6-59-33-105-74-139-62-51-154-86-261-106-253-46-555-2-780 113-28 14-58 25-90 32-676 148-1270 699-1896 1281-201 186-404 375-617 558zm-527 1387c189-281 274-485 281-624 2-36-1-57-8-64-17-18-56-32-111-41-180-29-435 15-715 119-1541 1211-3440 2395-5233 3513-2199 1371-4235 2640-5159 3664 482 55 939 131 1387 225 744 157 1460 366 2210 623 1022-497 1726-1398 2429-2298 389-498 778-995 1225-1440l3694-3676zm-4752 3088c-126-16-216-131-200-257s131-216 257-200c134 17 338 124 480 275 119 126 206 289 201 470-3 127-109 228-236 225s-228-109-225-236c1-43-32-95-77-143-72-76-156-128-202-134zM27779 1162c-3-203 159-371 363-374 203-3 371 159 374 363l122 6740c0 23-1 46-5 69l78 45c52 30 95 70 126 117 115 173 210 371 238 605 29 240-14 503-179 791-14 25-31 48-50 68 31 34 57 74 74 119l5589 14531c401-253 814-511 1232-772 1801-1123 3710-2313 5213-3501 16-13 33-24 51-34v-1c572-315 1072-779 1554-1226 690-641 1346-1250 2196-1452 354-167 814-229 1203-158 227 41 438 128 602 265 186 154 310 364 337 633 27 272-51 597-280 976-14 23-30 44-48 63-556 685-1621 1268-2687 1851-501 274-1003 548-1447 833l-3692 3674c-418 416-791 894-1164 1371-731 936-1462 1871-2562 2446l3 25c36 319-32 631-211 902-172 261-443 476-815 609-130 46-273 83-429 107l-107 98c-965 882-2005 1832-1925 4316 262 171 442 385 554 611 115 234 155 478 136 702-20 235-107 453-244 620-53 65-112 122-178 170l32 152c5 23 7 46 8 68 190 2130-13 3591-217 5052-95 685-191 1371-244 2124 111 220 200 453 269 698 8 20 13 41 17 61 367 1350 176 3024-14 4678-105 917-209 1829-214 2644 69 53 180 94 292 135h1c575 210 1149 421 753 1804-7 95-12 160-17 225-70 894-131 1660 775 2529 53 50 87 113 103 179 51 190 57 349 29 482-46 212-166 354-334 439-134 68-289 90-450 77-236-18-506-114-724-235-41-23-75-52-104-86-91-109-157-187-224-266-1006-1185-2189-2578-2229-4945-84-753-220-1525-358-2302-287-1619-579-3264-432-4992-200-977-508-1887-816-2797-344-1017-689-2035-893-3150l-6870 4288c-87 448-288 834-556 1129-182 202-396 362-627 472 6 30 9 60 8 92l-440 12315c0 7 0 15-1 22-32 540-306 875-637 1017-139 60-287 84-433 74-147-10-291-55-420-133-259-158-453-445-468-846h-3l2-55c0-39 2-78 5-119l605-13418c-229-342-391-724-295-1253 39-215 60-503 69-804 13-416 3-855-12-1174-20-430-47-856-74-1263-92-1423-169-2611 101-4402 53-957-165-2160-376-3322-317-1744-618-3401-2-4272l6-8c136-181 274-337 409-489 352-396 678-764 719-1418-306-532-618-357-929-181-295 166-590 332-946 307-11-1-23-2-33-4-380-46-727-243-994-579-188-237-335-544-422-915-209-31-358-93-566-382-53-74-75-161-68-246h-1l9-105c51-604 79-941-356-1957-2-6-5-12-7-17-234-636-75-1291 278-1861 206-332 481-637 782-891 4-23 10-45 19-67 35-92 68-216 105-353 200-745 481-1796 1827-2037l41-7 38 2c625 26 1179 173 1621 390 511 251 883 604 1061 986l17 36 9 47c44 218 4 593-41 1014-40 368-83 776-75 1077 44 115 75 231 92 345 133 292 135 588 137 884 3 400 5 800 703 986 39 10 74 26 106 47 107 58 219 59 331 9 133-60 273-180 417-357-246-803 513-1969 1389-3315 729-1120 1548-2378 1881-3535 4-13 8-25 13-37h-1l2049-5022c4-11 9-21 14-31 120-279 182-638 244-997 67-391 135-782 273-1127-4-21-7-42-7-63l-208-7388c-6-203 155-373 358-379s373 155 379 358l186 6615c88-51 184-96 291-135 106-38 217-25 308 26l50 28-116-6378zm293 9979l1 2 5313 13813c161-106 325-212 491-319-7-13-13-26-18-41l-5497-14292c-53 289-112 585-290 836zm4686 14235l-5204-13529c-118 964-265 1775-478 2512-254 876-598 1640-1091 2420-339 737-536 1536-732 2334-271 1100-541 2199-1188 3214-6 1130 151 2201 605 3185 443 961 1173 1848 2319 2641 1292-705 2028-603 2720-507 41 6 82 11 122 17 89 4 177 9 265 14 485-701 1452-1474 2664-2301zM17106 58329c3 132 51 218 115 257 25 15 55 24 85 26 32 2 64-3 94-16 95-41 176-162 189-378 0-3 0-5 1-8l436-12208h-54c-128-3-239-71-302-171l-564 12498zm2643-14851l6944-4335c-19-172-35-347-46-525l-7403 4621 505 239zm6809-5675c22-14 45-25 68-33 4-280 19-569 47-865-443-353-702-693-958-1028-412-540-816-1068-2154-1607-188-76-413-172-651-273-423-180-887-378-1188-483-126-44-301-99-476-155-592-187-1184-374-1664-756-4 775-84 1501-164 2227-58 528-116 1056-143 1588 190 1463-59 2722-308 3982-107 543-214 1086-283 1632 206 155 322 305 381 449l7493-4677zm644-1423c425 46 868 117 1317 190 971 156 1970 317 2804 219 32-9 60-30 84-59 43-53 71-130 79-219 9-100-9-210-61-314-70-143-203-280-415-385-38-19-73-44-102-75-614-140-1312-198-2021-201-813-3-1641 65-2374 165 183 226 392 453 689 681zm-1215-1350c854-135 1884-237 2903-232 655 3 1305 50 1901 161 3-2413 986-3467 1969-4374-796-308-1774-532-2763-759-1104-253-2222-510-3165-898-28-12-55-27-78-44-970-641-1686-1344-2205-2099-1861-284-2555-1433-3360-2766-120-198-242-401-366-597-85 62-172 112-260 151-77 34-154 60-231 78 177 459 299 910 361 1350 89 632 54 1236-116 1799-62 205-130 346-248 468-115 120-253 195-455 268-542 198-993 206-1399 113-180-41-347-101-505-172-97 176-212 333-336 485 348 771 786 1484 1231 2208 320 520 643 1044 949 1621 411 469 1034 666 1657 863 151 48 302 96 496 163 332 116 803 317 1234 500 239 102 465 198 637 267 1199 483 1743 961 2151 1446zm1928-6498c702 219 1477 397 2246 574 1192 274 2369 544 3291 970 20 9 39 20 57 32 87-17 167-38 240-64 213-76 360-187 445-317 80-121 109-265 92-417-1-9-2-17-3-26-705-240-1377-435-2074-582-593-125-1204-215-1868-268-19 3-39 4-59 4-245-2-458-31-675-61-464-64-951-132-1692 154zm-9129 2938c-181-308-368-612-554-914-399-648-792-1288-1130-1984-40 48-79 97-117 148-429 623-156 2126 132 3708 219 1207 446 2457 388 3495 0 18-1 37-4 56-261 1723-186 2877-96 4257 25 390 52 799 74 1278 15 330 25 787 12 1226-10 334-34 659-80 914-72 398 173 714 418 1032 137 177 274 355 383 559 230-49 451-183 629-380 189-209 330-489 386-817l-817-386c-138-65-226-211-210-371 13-120 53-217 97-320 49-116 108-255-188-438-122-71-198-209-183-359 70-663 194-1289 318-1915 239-1211 478-2422 298-3772-3-23-5-47-4-71 28-578 88-1122 148-1666 116-1050 231-2100 101-3278zm2562-8592c174 267 325 517 471 759 601 995 1132 1873 2215 2260-12-25-24-51-36-76-516-1120-686-2325-670-3590-3-75 16-153 61-220 620-935 883-2004 1147-3075 204-831 409-1662 782-2470 9-24 20-47 35-70 462-728 782-1435 1016-2243 236-816 388-1744 511-2900 9-147 106-280 254-328 389-127 451-467 509-786 83-453 161-882 665-1102 33-85 41-159 33-225-9-74-38-146-76-214l-619-351c-441 260-546 871-652 1482-69 402-139 804-297 1169l-5 12-2047 5017c-370 1256-1211 2549-1961 3701-830 1275-1536 2360-1274 2756 81 122 84 285-4 413l-57 81zm-3131 3901c137 65 277 118 421 151 278 63 593 55 983-87 94-34 149-60 174-86 23-24 44-77 71-168 139-460 167-960 93-1487-71-508-238-1043-493-1594-1074-347-1079-997-1083-1647-4-709-337-1425-893-1860-423-330-935-551-1361-514l-11 1c-118 11-230 31-337 58-113 28-215 62-307 101-486 205-1031 647-1358 1175-242 390-357 822-212 1218 486 1137 470 1550 413 2225 29 13 60 16 100 21 34 4 71 8 133 17 167 16 307 144 331 317 50 362 165 643 320 839 141 178 316 282 500 305 137 9 336-103 535-215 662-373 1324-746 1992 570h-1c27 52 41 112 40 174-4 178-21 339-48 488z"></path></g><!----></svg>